<svg xmlns="http://www.w3.org/2000/svg" xmlns:xlink="http://www.w3.org/1999/xlink" width="16" height="10" viewBox="0 0 16 10">
  <g>
    <g>
      <path d="M8,0.529c1.6,0,2.901,1.301,2.901,2.901S9.6,6.331,8,6.331S5.099,5.03,5.099,3.43S6.4,0.529,8,0.529z M8,5.759
        c1.284,0,2.328-1.045,2.328-2.329S9.284,1.101,8,1.101S5.671,2.146,5.671,3.43S6.716,5.759,8,5.759z"/>
    </g>
    <path d="M8,0.529c1.6,0,2.901,1.301,2.901,2.901S9.6,6.331,8,6.331S5.099,5.03,5.099,3.43S6.4,0.529,8,0.529z M8,5.759
      c1.284,0,2.328-1.045,2.328-2.329S9.284,1.101,8,1.101S5.671,2.146,5.671,3.43S6.716,5.759,8,5.759z"/>
    <path fill-opacity="0.75" d="M8,3.593c1.6,0,2.901,1.301,2.901,2.901S9.6,9.395,8,9.395S5.099,8.094,5.099,6.494S6.4,3.593,8,3.593z
      M8,8.822c1.284,0,2.328-1.045,2.328-2.329S9.284,4.164,8,4.164S5.671,5.21,5.671,6.494S6.716,8.822,8,8.822z"/>
  </g>
</svg>
